<?xml version="1.0" encoding="UTF-8"?>
<svg xmlns="http://www.w3.org/2000/svg" version="1.1" viewBox="0 0 1080 1080">
  <defs>
    <style>
      .cls-1 {
        fill: #030816;
      }

      .cls-2 {
        fill: #3266e3;
      }
    </style>
  </defs>
  <!-- Generator: Adobe Illustrator 28.6.0, SVG Export Plug-In . SVG Version: 1.2.0 Build 709)  -->
  <g>
    <g id="Layer_1">
      <g>
        <g>
          <path class="cls-2" d="M278,628.6h49.5v1.2c-4.3,14-13.8,25.6-28.5,34.7-23.5,0-37.2,3.3-40.9,9.9-4.1,6.8-6.2,13-6.2,18.6,0,15.7,9.1,24.4,27.2,26h13.6c14.7,0,27.5,12,38.4,35.9l-2.5,1.2h-128.8c-1.7,0-2.5-.8-2.5-2.5v-32.2c.2-1.7,1-2.5,2.5-2.5h24.8c-3.3-7.4-5-15.3-5-23.5v-6.2c0-28.9,15.3-48.7,45.8-59.5,4.3-.8,8.5-1.2,12.4-1.2Z"/>
          <path class="cls-2" d="M392,543.2l1.2,2.5v143.7c3.7,19.8,13.6,29.7,29.7,29.7h16.1c1.6.2,2.5,1,2.5,2.5v32.2c0,1.7-.8,2.5-2.5,2.5h-11.1c-36.3,0-59.9-18.2-70.6-54.5-.8-7-1.2-12.8-1.2-17.3v-99.1c0-15.3,12-29.3,35.9-42.1Z"/>
          <path class="cls-2" d="M516.5,605.1l1.2,2.5v76.8c0,12.8-2.5,24.4-7.4,34.7h30.3c1.6.2,2.5,1,2.5,2.5v32.2c0,1.7-.8,2.5-2.5,2.5h-109c-1.6,0-2.5-.8-2.5-2.5v-32.2c.2-1.7,1-2.5,2.5-2.5h19.2c19.8-3.7,29.7-13.6,29.7-29.7v-42.1c0-15.3,12-29.3,35.9-42.1ZM472.5,773.2c3.7,3.5,5.6,7.6,5.6,12.4s-1.9,9.7-5.6,13c-3.9,3.7-8.4,5.6-13.3,5.6s-10-1.9-13.3-5.6c-3.7-3.3-5.6-7.6-5.6-13s1.9-9.2,5.6-13.3c3.9-2.9,8.4-4.3,13.3-4.3s9.2,1.8,13.3,5.3ZM522,773.2c3.7,3.5,5.6,7.6,5.6,12.4s-1.9,9.7-5.6,13c-3.9,3.7-8.4,5.6-13.3,5.6s-10-1.9-13.3-5.6c-3.7-3.3-5.6-7.6-5.6-13s1.9-9.2,5.6-13.3c3.9-2.9,8.4-4.3,13.3-4.3s9.2,1.8,13.3,5.3Z"/>
          <path class="cls-2" d="M631,605.1c25.8,0,47.7,14.5,65.6,43.3,5.6,10.9,12.6,34.5,21.1,70.6h27.2c1.7.2,2.5,1,2.5,2.5v32.2c0,1.7-.8,2.5-2.5,2.5h-211.8c-1.6,0-2.5-.8-2.5-2.5v-32.2c.2-1.7,1-2.5,2.5-2.5h144.9v-1.2c-7-36.5-15.7-58.4-26-65.6-11.4-8.3-23.7-12.4-37.2-12.4s-27.7,4.5-40.9,13.6h-1.2l-2.5-1.2c0-20.4,13.2-35.3,39.6-44.6,10.7-1.7,17.8-2.5,21.1-2.5Z"/>
          <path class="cls-2" d="M819.3,543.2l1.2,2.5v138.7c0,36.3-18.2,59.9-54.5,70.6-7,.8-12.8,1.2-17.3,1.2h-11.1c-1.6,0-2.5-.8-2.5-2.5v-32.2c.2-1.7,1-2.5,2.5-2.5h16.1c19.8-3.7,29.7-13.6,29.7-29.7v-104c0-15.3,12-29.3,35.9-42.1Z"/>
          <path class="cls-2" d="M881.2,544.4l1.2,2.5v206.8c0,1.7-.8,2.5-2.5,2.5h-32.2c-1.7,0-2.5-.8-2.5-2.5v-167.2c0-15.3,12-29.3,35.9-42.1Z"/>
        </g>
        <g>
          <path class="cls-1" d="M228.5,340.6h51.9c45.6,0,77.1,21.9,94.7,65.7,3.1,9.9,9.7,50.6,19.9,122.2l-3.1,1.5h-198.5v-1.5c3.3-29.5,6.4-44.3,9.2-44.3h134.4v-1.5c-4.6-60.1-11.7-90.1-21.4-90.1,0-5.3-18.3-10.4-55-15.3-16.8-10.2-28.5-21.9-35.1-35.1l3.1-1.5ZM272,287.9c4.6,4.3,6.9,9.4,6.9,15.3s-2.3,12-6.9,16c-4.8,4.6-10.3,6.9-16.4,6.9s-12.3-2.3-16.4-6.9c-4.6-4.1-6.9-9.4-6.9-16s2.3-11.3,6.9-16.4c4.8-3.6,10.3-5.3,16.4-5.3s11.3,2.2,16.4,6.5Z"/>
          <path class="cls-1" d="M645.4,267.3l1.5,3.1v171c0,15.5-3.1,29.8-9.2,42.8h39.7c2,.3,3.1,1.3,3.1,3.1v39.7c0,2-1,3.1-3.1,3.1h-248.9c-2,0-3.1-1.5-3.1-4.6,15.5-27.5,32.3-41.2,50.4-41.2h36.6v-1.5c-20.9-57.5-33.6-96.7-38.2-117.6,0-17.3,8.6-33.1,26-47.3,2.8,0,13,25.5,30.5,76.3,19.3,60.1,30,90.1,32.1,90.1h1.5c24.4-4.6,36.6-16.8,36.6-36.6v-128.3c0-18.8,14.8-36.1,44.3-51.9Z"/>
          <path class="cls-1" d="M790.4,349.3c44.3,0,75.3,23.4,93.1,70.2,2,10.7,3.1,19,3.1,24.8,0,39.5-22.4,68.5-67.2,87-11.7,3.1-21.9,4.6-30.5,4.6s-18.8-2-36.6-6.1h-84c-2,0-3.1-1-3.1-3.1v-39.7c.3-2,1.3-3.1,3.1-3.1h33.6c-6.1-17.8-9.2-32.2-9.2-43.1,0-41.2,23.9-70.7,71.8-88.6,12.7-2,21.4-3.1,26-3.1ZM743.1,444.4c0,26.5,15.8,41.7,47.3,45.8,30.5-4.6,45.8-19.9,45.8-45.8v-3.4c0-26.5-15.8-41.7-47.3-45.8-23.2,0-38.4,13.2-45.8,39.7v9.5Z"/>
        </g>
      </g>
    </g>
  </g>
</svg>